<?xml version="1.0" encoding="UTF-8"?>
<svg xmlns="http://www.w3.org/2000/svg" version="1.1" viewBox="0 0 1333 978">
  <defs>
    <style>
      .cls-1 {
        fill: #4e9fcc;
      }

      .cls-2 {
        fill: #256284;
      }

      .cls-3 {
        fill: #e9fbff;
      }

      .cls-4 {
        fill: #a6cfe5;
      }

      .cls-5 {
        fill: #fff;
        font-family: Bauhaus93, 'Bauhaus 93';
        font-size: 230px;
      }
    </style>
  </defs>
  <!-- Generator: Adobe Illustrator 28.7.0, SVG Export Plug-In . SVG Version: 1.2.0 Build 136)  -->
  <g>
    <g id="Layer_1">
      <path class="cls-2" d="M91.4,952.9L588.4,92.4c28.2-51,26.7-60.4,59.2-4l492.8,868.6-1049-4.1Z"/>
      <path class="cls-1" d="M292.5,953L779.3,193c27.6-45,26.2-53.3,58-3.5l483.2,767.5-1028-4Z"/>
      <path class="cls-3" d="M618.3,30.1c1.8-3.1,6.3-3.1,8,0l108,199.7c2.3,4.4-1.7,9.4-6.5,8.2s-11.2-1.9-13.8-1c-14.1,4.9-13.9,17.5-26.2,6l-15.8-14.8c-4.5-4.2-11.7-4.7-16.8-1.1l-8.4,5.9c-3.5,2.5-4.7,6-5.8,9.7-1.7,5.6-6.3,9.9-12,11.1l-8.4,1.9c-.8.2-1.7.3-2.6.2-2.5-.3-4.9-1.4-6.5-3.4s-8.4-9.2-8.4-13.4c0,0-.9-22.3-4.7-30.9s-13-7-15.9,0-5,16.8-7.6,20.4h0c-3.8,5.3-8.6,9.9-14.2,13.3l-6.6,4.1c-9.5,5.9-21.5,5.9-31-.1h0c-4.2-2.7-9.5-3.4-14.4-1.9l-10.4,3.2c-1,.3-7.1-4.1,3.6-17.1s.3-.4.4-.6l116-199.4Z"/>
      <path class="cls-4" d="M38.8,954L406.6,258.1c20.8-41.2,19.8-48.8,43.8-3.3l364.2,702.2-775.9-3Z"/>
      <path class="cls-3" d="M428.8,215.8c.6-1,2-1,2.3.7,0,0,34,60.5,36.9,68.8s-.5,3-1.9,3.7h0c-6.2,2.1-11-1.8-15.6-6.1l-4.9-4.7c-1.4-1.3-3.6-1.5-5.2-.4l-2.6,1.9c-2,1.4-3.8,3.2-5.2,5.2l-.4.6c-1.1,1.6-3.3,2-5,1.1h0c-1.8-1-3-2.9-3-4.9v-2.6c0-1.3-.9-2.4-2.2-2.9h0c-2.5-.8-5.2.1-6.6,2.1l-1.6,2.3c-.1.2-.2.3-.4.4l-4.4,2.8c-2.9,1.9-6.7,1.8-9.6,0,0,0-4.8-3.9-4.1-6.8,4-18,33.8-61.2,33.8-61.2Z"/>
      <path class="cls-3" d="M808.6,143.7c1.1-1.8,4-1.8,5.1,0l76.7,125.2c1.3,2.1.1,4.6-2.4,5.4h0c-12.5,3.8-26.3,1.1-35.6-7l-9.9-8.6c-2.8-2.5-7.3-2.7-10.5-.6l-5.3,3.4c-4.1,2.6-7.6,5.9-10.4,9.5l-.9,1.1c-2.2,2.9-6.7,3.8-10.2,2h0c-3.7-1.9-6-5.3-6-9.1v-4.7c0-2.4-1.8-4.5-4.4-5.3h0c-5-1.4-10.4.2-13.3,3.9l-3.3,4.3c-.2.3-.5.5-.8.7l-8.9,5.2c-5.9,3.4-13.5,3.4-19.4,0h0c-2.7-1.6-6-2-9-1.1l-6.5,1.8c-.6.2-4.5-2.4,2.3-9.9s.2-.2.2-.3l72.8-115.8Z"/>
      <text class="cls-5" transform="translate(299.4 576.6)"><tspan x="0" y="0">Peak</tspan></text>
      <text class="cls-5" transform="translate(198.2 766) scale(1.1 1)"><tspan x="0" y="0">SKI &amp;</tspan></text>
      <text class="cls-5" transform="translate(130.7 935.2)"><tspan x="0" y="0">Board</tspan></text>
    </g>
  </g>
</svg>